# xmcd
#
# Track frame offsets:
#	150
#	19300
#	55661
#	81209
#	123742
#	152533
#	180135
#
# Disc length: 2664 seconds
#
# Revision: 2
# Processed by: cddbd v1.5.2PL0 Copyright (c) Steve Scherf et al.
# Submitted via: EZCDDA 4.3.2
#
DISCID=4b0a6607
DTITLE=Cry Of Silence - Walking Through The Eternal Tragedy
DYEAR=1900
DGENRE=
TTITLE0=Raven's Sorrow
TTITLE1=In My Dreams
TTITLE2=In The Dark Side Of Despair
TTITLE3=Walking Through The Eternal Tragedy
TTITLE4=And I'm The Wolf Who Brings ...
TTITLE5=In The Majesty Of Death
TTITLE6=Pagan Worship
EXTD=
EXTT0=
EXTT1=
EXTT2=
EXTT3=
EXTT4=
EXTT5=
EXTT6=
PLAYORDER=
